<svg width="11" height="18" viewBox="0 0 11 18" fill="none" xmlns="http://www.w3.org/2000/svg">
<path d="M0.282432 1.48918C0.192214 1.40491 0.121684 1.30579 0.0748687 1.19747C0.0280532 1.08915 0.00586875 0.97375 0.00958308 0.857862C0.0132974 0.741974 0.0428375 0.627866 0.0965161 0.522054C0.150195 0.416242 0.226961 0.320798 0.322432 0.241171C0.417903 0.161544 0.530209 0.0992938 0.652938 0.0579741C0.775666 0.0166545 0.906414 -0.00292526 1.03772 0.000353044C1.16902 0.00363135 1.2983 0.0297034 1.41819 0.0770805C1.53807 0.124458 1.64621 0.192212 1.73643 0.276475L10.2364 8.21993C10.412 8.3838 10.5098 8.60076 10.5098 8.82628C10.5098 9.05179 10.412 9.26875 10.2364 9.43263L1.73643 17.377C1.64681 17.4631 1.53869 17.5326 1.41837 17.5815C1.29804 17.6304 1.1679 17.6578 1.03551 17.6619C0.903111 17.6661 0.771102 17.647 0.647145 17.6057C0.523189 17.5644 0.409755 17.5019 0.313435 17.4216C0.217114 17.3413 0.139826 17.2449 0.0860601 17.1381C0.0322939 17.0312 0.00312155 16.916 0.000237084 16.7991C-0.00264738 16.6822 0.0208133 16.566 0.0692573 16.4571C0.117701 16.3483 0.190163 16.249 0.282432 16.1651L8.13442 8.82628L0.282432 1.48918Z" fill="#4C3B92"/>
</svg>
