<svg width="11" height="18" viewBox="0 0 11 18" fill="none" xmlns="http://www.w3.org/2000/svg">
<path d="M10.2273 1.48918C10.3176 1.40491 10.3881 1.30579 10.4349 1.19747C10.4817 1.08915 10.5039 0.97375 10.5002 0.857862C10.4965 0.741974 10.4669 0.627866 10.4132 0.522054C10.3596 0.416242 10.2828 0.320798 10.1873 0.241171C10.0919 0.161544 9.97956 0.0992938 9.85683 0.0579741C9.7341 0.0166545 9.60335 -0.00292526 9.47205 0.000353044C9.34075 0.00363135 9.21146 0.0297034 9.09158 0.0770805C8.97169 0.124458 8.86355 0.192212 8.77333 0.276475L0.273344 8.21993C0.0978079 8.3838 0 8.60076 0 8.82628C0 9.05179 0.0978079 9.26875 0.273344 9.43263L8.77333 17.377C8.86296 17.4631 8.97107 17.5326 9.0914 17.5815C9.21173 17.6304 9.34187 17.6578 9.47426 17.6619C9.60665 17.6661 9.73866 17.647 9.86262 17.6057C9.98658 17.5644 10.1 17.5019 10.1963 17.4216C10.2927 17.3413 10.3699 17.2449 10.4237 17.1381C10.4775 17.0312 10.5066 16.916 10.5095 16.7991C10.5124 16.6822 10.489 16.566 10.4405 16.4571C10.3921 16.3483 10.3196 16.249 10.2273 16.1651L2.37534 8.82628L10.2273 1.48918Z" fill="#4C3B92"/>
</svg>
