<svg width="118" height="182" viewBox="0 0 118 182" fill="none" xmlns="http://www.w3.org/2000/svg">
<rect width="25.7174" height="38.5761" transform="matrix(-1 0 0 1 78.5923 0)" fill="#4D28AB"/>
<rect width="27.6957" height="25.7174" transform="matrix(-1 0 0 1 54.853 0)" fill="#4D28AB"/>
<rect width="79" height="26" transform="matrix(-1 0 0 1 92 13)" fill="#4D28AB"/>
<rect width="13" height="40" transform="matrix(-1 0 0 1 14 27)" fill="#4D28AB"/>
<rect width="91" height="39" transform="matrix(-1 0 0 1 105 26)" fill="#4D28AB"/>
<rect width="51" height="38" transform="matrix(-1 0 0 1 118 39)" fill="#4D28AB"/>
<rect width="104" height="26" transform="matrix(-1 0 0 1 105 76)" fill="#4D28AB"/>
<rect width="26.7065" height="12.8587" transform="matrix(-1 0 0 1 66.7231 50.4456)" fill="#CC8300"/>
<rect width="78.1413" height="12.8587" transform="matrix(-1 0 0 1 92.4404 38.5761)" fill="#CC8300"/>
<rect width="104.848" height="10.8804" transform="matrix(-1 0 0 1 105.299 65.2826)" fill="#CC8300"/>
<rect width="78.1413" height="1.97826" transform="matrix(-1 0 0 1 92.4404 63.3044)" fill="#CC8300"/>
<rect width="80.1196" height="11.8696" transform="matrix(-1 0 0 1 93.4297 78.1413)" fill="#CC8300"/>
<rect width="80.1196" height="1.97826" transform="matrix(-1 0 0 1 93.4297 76.163)" fill="#CC8300"/>
<rect width="80.1196" height="12.8587" transform="matrix(-1 0 0 1 93.4297 102.87)" fill="#CC8300"/>
<rect width="40.5543" height="13.8478" transform="matrix(-1 0 0 1 53.8638 90.0109)" fill="#CC8300"/>
<rect width="13.8478" height="13.8478" transform="matrix(-1 0 0 1 93.4297 90.0109)" fill="#CC8300"/>
<rect width="26" height="57" transform="matrix(-1 0 0 1 53 26)" fill="#CC8300"/>
<rect width="12.8587" height="11.8696" transform="matrix(-1 0 0 1 92.4404 51.4348)" fill="#CC8300"/>
<rect width="78" height="73" transform="matrix(-1 0 0 1 92 39)" fill="#CC8300"/>
<rect width="27" height="43" transform="matrix(-1 0 0 1 67 99)" fill="#CC8300"/>
<rect x="27.1572" y="51.4348" width="12.8587" height="11.8696" fill="#090101"/>
<rect x="66.7231" y="51.4348" width="12.8587" height="11.8696" fill="#090101"/>
<rect x="53.8638" y="90.0109" width="25.7174" height="12.8587" fill="#FEFCEF"/>
<rect x="1.44043" y="129.576" width="102.87" height="13.8478" fill="#CC8300"/>
<rect x="1" y="143" width="103" height="13" fill="#6703C2"/>
<rect x="8" y="150" width="89" height="19" fill="#6703C2"/>
<rect x="27" y="163" width="53" height="19" fill="#6703C2"/>
<rect x="2" y="156" width="11" height="26" fill="#CC8300"/>
<rect x="93" y="156" width="11" height="26" fill="#CC8300"/>
</svg>
