<svg width="105" height="182" viewBox="0 0 105 182" fill="none" xmlns="http://www.w3.org/2000/svg">
<rect x="27" width="37" height="38" fill="#481500"/>
<rect y="33" width="13" height="57" fill="#481500"/>
<rect x="4" y="33" width="99" height="57" fill="#481500"/>
<rect x="14" y="13" width="77" height="20" fill="#481500"/>
<rect y="25.5784" width="103.297" height="12.7892" fill="#481500"/>
<rect x="13" y="38" width="78" height="22" fill="#FFE19B"/>
<rect y="64.9297" width="103.297" height="12.7892" fill="#FFE19B"/>
<rect x="12.7891" y="64.9297" width="77.7189" height="24.5946" fill="#FFE19B"/>
<rect x="14.7568" y="87.5568" width="75.7514" height="28.5297" fill="#FFE19B"/>
<rect x="41" y="111" width="23" height="48" fill="#FFE19B"/>
<rect x="39.3516" y="129.859" width="24.5946" height="1.96757" fill="#EB1EFF"/>
<rect y="130.843" width="104.281" height="39.3514" fill="#EB1EFF"/>
<rect x="1.96777" y="170.195" width="100.346" height="11.8054" fill="#FFE19D"/>
<rect x="13" y="48" width="78" height="21" fill="#FFE19B"/>
<rect x="24.5947" y="51.1568" width="14.7568" height="13.773" fill="#000002"/>
<rect x="37.3838" y="90.5081" width="14.7568" height="13.773" fill="white"/>
<rect x="25.5786" y="77.7189" width="13.773" height="26.5622" fill="white"/>
<rect x="64.9297" y="51.1568" width="13.773" height="13.773" fill="#000002"/>
<rect x="11.8052" y="130.843" width="14.7568" height="51.1568" fill="#003464"/>
<rect x="77.7188" y="130.843" width="14.7568" height="51.1568" fill="#003464"/>
<rect x="23" y="169" width="65" height="13" fill="#003464"/>
</svg>
