<svg width="111" height="182" viewBox="0 0 111 182" fill="none" xmlns="http://www.w3.org/2000/svg">
<rect x="14.6436" width="55.4368" height="27.1954" fill="#09001A"/>
<rect x="1" y="15" width="109" height="40" fill="#09001A"/>
<rect x="69.0342" width="27.1954" height="13.5977" fill="#09001A"/>
<rect x="82" y="13" width="15" height="14" fill="#09001A"/>
<rect x="14" y="67" width="82" height="3" fill="#160700"/>
<rect x="70" y="13" width="13" height="15" fill="#FFC138"/>
<rect x="14.6436" y="27.1954" width="82.6322" height="13.5977" fill="#FFC138"/>
<rect x="1" y="55" width="109" height="13" fill="#FFC138"/>
<rect x="15" y="27" width="82" height="28" fill="#FFC138"/>
<rect x="69.0347" y="40.7931" width="14.6437" height="14.6437" fill="#120B0B"/>
<rect x="27.1953" y="40.7931" width="14.6437" height="14.6437" fill="#120B0B"/>
<rect x="43" y="105" width="25" height="43" fill="#FFC138"/>
<rect x="14" y="68" width="82" height="19" fill="#160700"/>
<rect x="29" y="76" width="54" height="35" fill="#160700"/>
<rect x="14" y="84" width="27" height="13" fill="#160700"/>
<rect x="70" y="84" width="26" height="13" fill="#160700"/>
<rect x="1" y="151" width="109" height="31" fill="#FFC138"/>
<rect y="141.263" width="14.6437" height="12.5517" fill="#CB9AFB"/>
<rect x="14.6436" y="126.563" width="81.5862" height="55.4368" fill="#CB9AFB"/>
<rect x="12.5518" y="141.207" width="2.09195" height="40.7931" fill="#CB9AFB"/>
<rect x="9.41357" y="142.413" width="8.21325" height="11.5057" transform="rotate(-41.0154 9.41357 142.413)" fill="#CB9AFB"/>
<rect width="15.6897" height="12.5517" transform="matrix(-1 0 0 1 110.874 141.207)" fill="#CB9AFB"/>
<rect width="2.09195" height="40.7931" transform="matrix(-1 0 0 1 98.3218 141.207)" fill="#CB9AFB"/>
<rect width="8.21325" height="11.5057" transform="matrix(-0.754533 -0.656262 -0.656262 0.754533 100.564 142.413)" fill="#CB9AFB"/>
<rect x="40.793" y="83.6782" width="29.2874" height="13.5977" fill="white"/>
</svg>
