<svg width="116" height="182" viewBox="0 0 116 182" fill="none" xmlns="http://www.w3.org/2000/svg">
<rect x="39.0493" width="25.4409" height="38.1613" fill="#B00443"/>
<rect x="62.5332" width="27.3979" height="25.4409" fill="#B00443"/>
<rect x="72.3721" y="13" width="31" height="25" fill="#B00443"/>
<rect x="102.652" y="26.4193" width="12.7204" height="38.1613" fill="#B00443"/>
<rect x="25.3721" y="13" width="16" height="27" fill="#B00443"/>
<rect x="12.3721" y="25" width="91" height="40" fill="#B00443"/>
<rect y="38" width="17" height="38" fill="#B00443"/>
<rect x="12.3721" y="77" width="103" height="26" fill="#B00443"/>
<rect x="76.3721" y="91" width="27" height="12" fill="#FFD461"/>
<rect x="50.791" y="49.9032" width="26.4194" height="14.6774" fill="#FFD461"/>
<rect x="26.3721" y="38" width="75" height="76" fill="#FFD461"/>
<rect x="25.3501" y="38.1613" width="77.3011" height="12.7204" fill="#FFD461"/>
<rect x="12.6299" y="64.5806" width="101.763" height="12.7204" fill="#FFD461"/>
<rect x="64.4902" y="25.4409" width="25.4409" height="12.7204" fill="#FFD461"/>
<rect x="24.3721" y="38" width="79" height="65" fill="#FFD461"/>
<rect x="25.3501" y="50.8817" width="11.7419" height="13.6989" fill="#FFD461"/>
<rect x="90.9097" y="50.8817" width="11.7419" height="13.6989" fill="#FFD461"/>
<rect x="50.3721" y="110" width="27" height="5" fill="#FFD461"/>
<rect x="52.3721" y="109" width="24" height="7" fill="#FFD461"/>
<rect x="53.3721" y="110" width="22" height="33" fill="#FFD461"/>
<rect x="52.748" y="131.118" width="0.978495" height="11.7419" fill="#FFD461"/>
<rect x="75.2534" y="131.118" width="0.978495" height="11.7419" fill="#FFD461"/>
<rect x="44.3721" y="132" width="41" height="14" fill="#FFD461"/>
<rect x="37.0923" y="50.8817" width="14.6774" height="13.6989" fill="#120B0B"/>
<rect x="77.2109" y="50.8817" width="13.6989" height="13.6989" fill="#120B0B"/>
<rect x="51.77" y="91" width="24.4624" height="11.7419" fill="#FEFFFC"/>
<rect x="12.6299" y="130.14" width="38.1613" height="26.4194" fill="#040002"/>
<rect x="43.9419" y="142.86" width="38.1613" height="39.1398" fill="#040002"/>
<rect x="37.3721" y="164" width="54" height="18" fill="#040002"/>
<rect x="21.3721" y="149" width="86" height="20" fill="#040002"/>
<rect x="82.103" y="156.559" width="21.5269" height="12.7204" fill="#040002"/>
<rect x="77.2109" y="130.14" width="38.1613" height="26.4194" fill="#040002"/>
<rect x="13.6084" y="156.559" width="9.78495" height="25.4409" fill="#FFD461"/>
<rect x="103.63" y="156.559" width="10.7634" height="25.4409" fill="#FFD461"/>
</svg>
