<svg width="58" height="51" viewBox="0 0 58 51" fill="none" xmlns="http://www.w3.org/2000/svg">
<path d="M56.1331 0H0.866875C0.391875 0 0 0.345875 0 0.765118V8.38486V49.544C0 49.9633 0.391875 50.3091 0.866875 50.3091H56.145C56.62 50.3091 57.0118 49.9633 57.0118 49.544V8.38486V0.765118C57 0.345875 56.6081 0 56.1331 0ZM1.72187 1.51976H55.2662V7.61974H1.72187V1.51976ZM55.2781 48.7789H1.72187V9.14997H55.2662V48.7789H55.2781Z" fill="#14074B"/>
<path d="M50.9906 4.02473C50.8362 4.17146 50.7412 4.37058 50.7412 4.56971C50.7412 4.77932 50.8362 4.96796 50.9906 5.11469C51.1568 5.26142 51.3706 5.33478 51.6081 5.33478C51.8456 5.33478 52.0593 5.26142 52.2256 5.11469C52.38 4.96796 52.475 4.77932 52.475 4.56971C52.475 4.37058 52.38 4.17146 52.2256 4.03521C51.8931 3.75224 51.3112 3.75224 50.9906 4.02473Z" fill="#14074B"/>
<path d="M46.8586 3.80463C46.3836 3.80463 45.9917 4.15051 45.9917 4.56976C45.9917 4.9995 46.3836 5.3349 46.8586 5.3349C47.3336 5.3349 47.7255 4.9995 47.7255 4.56976C47.7136 4.15051 47.3217 3.80463 46.8586 3.80463Z" fill="#14074B"/>
<path d="M41.4916 4.03521C41.3372 4.17146 41.2422 4.37058 41.2422 4.56971C41.2422 4.77932 41.3372 4.96796 41.4916 5.11469C41.6578 5.26142 41.8834 5.33478 42.1091 5.33478C42.3347 5.33478 42.5603 5.26142 42.7266 5.11469C42.881 4.96796 42.976 4.76884 42.976 4.56971C42.976 4.37058 42.881 4.17146 42.7266 4.02473C42.3822 3.75224 41.8122 3.75224 41.4916 4.03521Z" fill="#14074B"/>
<path d="M14.1433 23.4985C16.447 23.4985 18.3232 21.8425 18.3232 19.8197C18.3232 17.7863 16.447 16.1303 14.1433 16.1303C11.8395 16.1303 9.97515 17.7863 9.97515 19.8197C9.96328 21.853 11.8395 23.4985 14.1433 23.4985ZM14.1433 17.6606C15.497 17.6606 16.5895 18.6248 16.5895 19.8197C16.5895 21.0145 15.497 21.9788 14.1433 21.9788C12.7895 21.9788 11.697 21.0145 11.697 19.8197C11.697 18.6248 12.7895 17.6606 14.1433 17.6606Z" fill="#14074B"/>
<path d="M8.52654 40.2682C8.05154 40.2682 7.65967 40.6141 7.65967 41.0333C7.65967 41.4526 8.05154 41.7985 8.52654 41.7985H10.8303H17.4565H19.7602C20.2352 41.7985 20.6271 41.4526 20.6271 41.0333C20.6271 40.6141 20.2352 40.2682 19.7602 40.2682H18.3233V26.1712C18.3233 25.7519 17.9315 25.4061 17.4565 25.4061H10.8303H8.52654C8.05154 25.4061 7.65967 25.7519 7.65967 26.1712C7.65967 26.5904 8.05154 26.9363 8.52654 26.9363H9.9634V40.2787H8.52654V40.2682ZM11.6971 26.9363H16.5896V40.2787H11.6971V26.9363Z" fill="#14074B"/>
<path d="M26.446 22.1046H47.6072C48.0822 22.1046 48.4741 21.7587 48.4741 21.3395C48.4741 20.9203 48.0822 20.5744 47.6072 20.5744H26.446C25.971 20.5744 25.5791 20.9203 25.5791 21.3395C25.591 21.7692 25.971 22.1046 26.446 22.1046Z" fill="#14074B"/>
<path d="M47.6074 25.6577H38.5348C38.0598 25.6577 37.668 26.0035 37.668 26.4228C37.668 26.842 38.0598 27.1879 38.5348 27.1879H47.6074C48.0824 27.1879 48.4742 26.842 48.4742 26.4228C48.4742 26.0035 48.0824 25.6577 47.6074 25.6577Z" fill="#14074B"/>
<path d="M26.446 27.1879H33.7847C34.2597 27.1879 34.6516 26.842 34.6516 26.4228C34.6516 26.0035 34.2597 25.6577 33.7847 25.6577H26.446C25.971 25.6577 25.5791 26.0035 25.5791 26.4228C25.591 26.842 25.971 27.1879 26.446 27.1879Z" fill="#14074B"/>
<path d="M26.446 32.2712H47.6072C48.0822 32.2712 48.4741 31.9254 48.4741 31.5061C48.4741 31.0868 48.0822 30.741 47.6072 30.741H26.446C25.971 30.741 25.5791 31.0868 25.5791 31.5061C25.591 31.9254 25.971 32.2712 26.446 32.2712Z" fill="#14074B"/>
<path d="M26.446 37.3546H42.0854C42.5604 37.3546 42.9523 37.0087 42.9523 36.5894C42.9523 36.1701 42.5604 35.8242 42.0854 35.8242H26.446C25.971 35.8242 25.5791 36.1701 25.5791 36.5894C25.591 37.0087 25.971 37.3546 26.446 37.3546Z" fill="#14074B"/>
</svg>
