<svg width="54" height="54" viewBox="0 0 54 54" fill="none" xmlns="http://www.w3.org/2000/svg">
<path d="M50.1353 31.566C49.2044 31.566 48.3679 31.8911 47.6963 32.418L44.4443 30.0191C45.2573 28.3601 46.0113 26.6899 46.5651 25.0309C46.6123 25.0309 46.6594 25.0421 46.7065 25.0421C48.8274 25.0421 50.5595 23.3943 50.5595 21.3766C50.5595 19.5943 49.228 18.1146 47.4606 17.7783C47.166 14.6845 46.1881 11.7924 44.6917 9.2927L46.7654 7.83546C47.437 8.38473 48.309 8.73222 49.2751 8.73222C51.396 8.73222 53.1281 7.08442 53.1281 5.06671C53.1281 3.04899 51.396 1.40119 49.2751 1.40119C47.1543 1.40119 45.4222 3.04899 45.4222 5.06671C45.4222 5.58234 45.54 6.07556 45.7403 6.52394L43.7844 7.89151C40.3439 3.10504 34.8649 0 28.7026 0C26.1575 0 23.7303 0.538057 21.5152 1.50208C20.8082 0.594105 19.6889 0 18.4163 0C16.2954 0 14.5634 1.6478 14.5634 3.66552C14.5634 4.48381 14.858 5.22364 15.3293 5.84016C12.1244 9.21423 10.0742 13.7877 9.87388 18.8544L7.58804 18.8768C7.17565 17.2627 5.66747 16.0633 3.85293 16.0633C1.73205 16.0745 0 17.7111 0 19.74C0 21.7689 1.73205 23.4055 3.85293 23.4055C5.70281 23.4055 7.24634 22.1612 7.62339 20.5134L9.88566 20.491C10.1449 24.6049 12.3247 28.8982 14.4456 33.0457C14.4691 33.0905 14.4927 33.1466 14.5163 33.1914L11.7355 36.1171C11.1818 35.8144 10.5455 35.6351 9.8621 35.6351C7.74122 35.6351 6.00916 37.2829 6.00916 39.3006C6.00916 41.3183 7.74122 42.9661 9.8621 42.9661C11.983 42.9661 13.715 41.3183 13.715 39.3006C13.715 38.5159 13.4558 37.7985 13.0081 37.2044L15.3057 34.7832C16.0362 36.2516 16.7432 37.7425 17.3205 39.1885H17.0849C16.6136 39.1885 16.2247 39.5584 16.2247 40.0068C16.2247 40.4552 16.6136 40.8251 17.0849 40.8251H18.0157C18.3574 41.2511 18.5459 41.7555 18.5459 42.2935C18.5459 42.8316 18.3456 43.336 18.0157 43.762H17.0849C16.6136 43.762 16.2247 44.1319 16.2247 44.5803C16.2247 45.0287 16.6136 45.3986 17.0849 45.3986H18.0157C18.7109 46.2617 18.7109 47.4611 18.0157 48.3355H17.0849C16.6136 48.3355 16.2247 48.7054 16.2247 49.1538C16.2247 49.6022 16.6136 49.9721 17.0849 49.9721H19.7831C20.1955 52.1691 22.1986 53.8394 24.6258 53.8394H32.7794C35.1949 53.8394 37.2097 52.1691 37.6221 49.9721H40.2261C40.6974 49.9721 41.0862 49.6022 41.0862 49.1538C41.0862 48.7054 40.6974 48.3355 40.2261 48.3355H39.3895C38.6943 47.4723 38.6943 46.2729 39.3895 45.3986H40.2261C40.6974 45.3986 41.0862 45.0287 41.0862 44.5803C41.0862 44.1319 40.6974 43.762 40.2261 43.762H39.3895C39.0478 43.3472 38.8593 42.8316 38.8593 42.2935C38.8593 41.7555 39.0478 41.2511 39.3895 40.8251H40.2261C40.6974 40.8251 41.0862 40.4552 41.0862 40.0068C41.0862 39.5584 40.6974 39.1885 40.2261 39.1885H40.0375C40.8741 37.0587 41.9699 34.884 43.0657 32.7767C43.2778 32.3619 43.4899 31.9472 43.7019 31.5212L46.6594 33.6958C46.4355 34.1666 46.2941 34.6823 46.2941 35.2315C46.2941 37.2493 48.0262 38.8971 50.1471 38.8971C52.2679 38.8971 54 37.2493 54 35.2315C54 33.2138 52.2562 31.566 50.1353 31.566ZM49.2751 3.02657C50.4534 3.02657 51.4196 3.94575 51.4196 5.06671C51.4196 6.18766 50.4534 7.10684 49.2751 7.10684C48.0969 7.10684 47.1307 6.18766 47.1307 5.06671C47.1307 3.93454 48.0969 3.02657 49.2751 3.02657ZM9.85032 41.3407C8.67205 41.3407 7.70587 40.4216 7.70587 39.3006C7.70587 38.1797 8.67205 37.2605 9.85032 37.2605C11.0286 37.2605 11.9948 38.1797 11.9948 39.3006C11.9948 40.4328 11.0404 41.3407 9.85032 41.3407ZM43.0539 28.999L36.6441 24.2798C37.2568 23.3719 37.7046 22.3518 37.9402 21.2645L42.8889 21.7913C43.0421 23.0132 43.8198 24.0556 44.9156 24.6049C44.4325 26.0397 43.7844 27.5082 43.0539 28.999ZM20.9967 19.4709C20.9967 15.4243 24.4608 12.1287 28.7144 12.1287C32.9679 12.1287 36.432 15.4243 36.432 19.4709C36.432 23.5176 32.9679 26.802 28.7144 26.802C24.4491 26.802 20.9967 23.5176 20.9967 19.4709ZM48.851 21.3654C48.851 22.4863 47.8848 23.4055 46.7065 23.4055C45.5283 23.4055 44.5621 22.4863 44.5621 21.3654C44.5621 20.2444 45.5283 19.3252 46.7065 19.3252C47.8848 19.3364 48.851 20.2444 48.851 21.3654ZM45.7286 17.8344C44.4914 18.1482 43.5016 19.0226 43.0775 20.1659L38.117 19.6391C38.117 19.583 38.1287 19.527 38.1287 19.4597C38.1287 17.7671 37.6221 16.1866 36.7619 14.8302L43.3013 10.2567C44.6092 12.5098 45.4576 15.0768 45.7286 17.8344ZM28.7026 1.62538C34.2994 1.62538 39.2717 4.4726 42.3941 8.86674L35.7369 13.5299C34.0048 11.6803 31.4951 10.5033 28.6908 10.5033C27.1826 10.5033 25.7569 10.8508 24.4844 11.4561L21.1263 6.27734C21.8333 5.61597 22.281 4.68558 22.281 3.66552C22.281 3.43012 22.2575 3.20592 22.2103 2.98173C24.2134 2.1186 26.405 1.62538 28.7026 1.62538ZM18.4163 1.62538C19.5946 1.62538 20.5608 2.54456 20.5608 3.66552C20.5608 4.78647 19.6064 5.70565 18.4163 5.70565C17.2381 5.70565 16.2719 4.78647 16.2719 3.66552C16.2837 2.54456 17.2381 1.62538 18.4163 1.62538ZM16.6254 6.89386C17.1674 7.16289 17.7683 7.33103 18.4163 7.33103C18.8523 7.33103 19.2647 7.24135 19.6535 7.11805L23.0351 12.3081C20.9378 13.8101 19.5239 16.1193 19.3118 18.7423L11.5824 18.832C11.7945 14.1801 13.6797 9.97648 16.6254 6.89386ZM3.85293 21.7801C2.67467 21.7801 1.70849 20.8609 1.70849 19.74C1.70849 18.619 2.66288 17.6998 3.85293 17.6998C5.0312 17.6998 5.99738 18.619 5.99738 19.74C5.99738 20.8609 5.0312 21.7801 3.85293 21.7801ZM11.5942 20.4686L19.3236 20.3789C19.5357 22.363 20.4312 24.1453 21.7862 25.5241L15.7534 31.8799C13.7975 28.0462 11.8416 24.1005 11.5942 20.4686ZM19.9599 40.8251H37.4336C37.0447 41.7667 37.0447 42.8092 37.4336 43.7508H19.9599C20.3487 42.8092 20.3487 41.7667 19.9599 40.8251ZM32.7794 52.1691H24.6258C23.153 52.1691 21.9158 51.2275 21.5387 49.9384H35.8782C35.4894 51.2275 34.2405 52.1691 32.7794 52.1691ZM19.9599 48.3131C20.3487 47.3715 20.3487 46.329 19.9599 45.3762H37.4336C37.0447 46.3178 37.0447 47.3603 37.4336 48.3131H19.9599ZM41.5104 32.0592C40.3085 34.3908 39.0831 36.8009 38.1994 39.1885H19.1586C18.4399 37.2941 17.5091 35.3661 16.5547 33.4716L23.0587 26.6226C24.6376 27.7548 26.5935 28.4274 28.7026 28.4274C31.4244 28.4274 33.8752 27.3176 35.5955 25.5577L42.2998 30.4899C42.0406 31.0168 41.7814 31.5324 41.5104 32.0592ZM50.1353 37.2717C48.957 37.2717 47.9908 36.3525 47.9908 35.2315C47.9908 34.1106 48.957 33.1914 50.1353 33.1914C51.3135 33.1914 52.2797 34.0994 52.2797 35.2315C52.2797 36.3525 51.3135 37.2717 50.1353 37.2717Z" fill="#14074B"/>
<path d="M29.1264 23.8763L32.944 17.1505C33.1679 16.7582 33.0147 16.2649 32.6023 16.0408C32.19 15.8278 31.6597 15.9735 31.4359 16.3658L28.2074 22.0603L25.9569 19.6278C25.6506 19.2915 25.0968 19.2579 24.7433 19.5494C24.3898 19.8408 24.3545 20.3565 24.6608 20.704L27.7243 24.022C27.8893 24.2014 28.1249 24.3022 28.3724 24.3022C28.4077 24.3022 28.4313 24.3022 28.4666 24.3022C28.7494 24.2686 28.9968 24.1117 29.1264 23.8763Z" fill="#14074B"/>
</svg>
