<svg width="65" height="57" viewBox="0 0 65 57" fill="none" xmlns="http://www.w3.org/2000/svg">
<path d="M64.5957 50.4422C64.5957 50.3469 64.5688 50.2516 64.5284 50.1563C64.515 50.1325 64.515 50.1087 64.5015 50.0848C64.488 50.0729 64.488 50.0491 64.4746 50.0253L59.6299 42.2933V17.6083C59.6299 15.583 57.7728 13.9389 55.485 13.9389H54.0854V8.08934V0.869694C54.0854 0.393149 53.6413 0 53.103 0H11.5061C10.9678 0 10.5237 0.393149 10.5237 0.869694V8.08934V13.9389H9.12414C6.83638 13.9389 4.97925 15.583 4.97925 17.6083V42.3052L0.121117 50.0372C0.10766 50.0491 0.10766 50.0729 0.0942021 50.0968C0.0807446 50.1206 0.0672872 50.1444 0.0672872 50.1682C0.0269149 50.2516 0 50.3469 0 50.4422V50.4542V53.0513C0 54.9575 1.76292 56.5182 3.91611 56.5182H60.6796C62.8328 56.5182 64.5957 54.9575 64.5957 53.0513V50.4542C64.5957 50.4542 64.5957 50.4542 64.5957 50.4422ZM12.475 8.95904H52.1072V36.6225H12.475V8.95904ZM12.475 1.73939H52.1072V7.23156H12.475V1.73939ZM6.93058 17.6083C6.93058 16.5361 7.91297 15.6664 9.12414 15.6664H10.5237V37.4802C10.5237 37.9568 10.9678 38.3499 11.5061 38.3499H53.103C53.6413 38.3499 54.0854 37.9568 54.0854 37.4802V15.6664H55.485C56.6962 15.6664 57.6786 16.5361 57.6786 17.6083V41.6619H6.93058V17.6083ZM6.52686 43.4013H58.0823L61.958 49.5964H2.63766L6.52686 43.4013ZM62.6444 53.0632C62.6444 54.0163 61.7696 54.7907 60.693 54.7907H3.91611C2.83952 54.7907 1.96479 54.0163 1.96479 53.0632V51.3239H62.6444V53.0632Z" fill="#14074B"/>
<path d="M48.3122 3.872C48.1238 4.02688 48.0161 4.25323 48.0161 4.47958C48.0161 4.71784 48.1238 4.93228 48.2987 5.09907C48.4871 5.26585 48.7428 5.34924 48.9985 5.34924C49.2676 5.34924 49.5233 5.26585 49.6982 5.09907C49.8866 4.93228 49.9808 4.71784 49.9808 4.47958C49.9808 4.25323 49.8866 4.02688 49.6982 3.872C49.3214 3.53843 48.6755 3.53843 48.3122 3.872Z" fill="#14074B"/>
<path d="M44.5043 3.61011C43.9661 3.61011 43.522 4.00323 43.522 4.47974C43.522 4.96816 43.9661 5.34937 44.5043 5.34937C45.0426 5.34937 45.4867 4.96816 45.4867 4.47974C45.4732 4.00323 45.0426 3.61011 44.5043 3.61011Z" fill="#14074B"/>
<path d="M39.31 3.8718C39.1215 4.02668 39.0273 4.25306 39.0273 4.46752C39.0273 4.6939 39.1215 4.92027 39.31 5.08708C39.4849 5.25388 39.7406 5.33728 40.0098 5.33728C40.2655 5.33728 40.5212 5.25388 40.6961 5.08708C40.8845 4.92027 40.9922 4.70581 40.9922 4.46752C40.9922 4.24115 40.8845 4.01477 40.6961 3.84797C40.3328 3.53819 39.6733 3.53819 39.31 3.8718Z" fill="#14074B"/>
<path d="M35.542 15.8332C35.0306 15.6664 34.4789 15.8928 34.277 16.3455L28.4769 30.0702C28.2885 30.5229 28.5442 31.0114 29.0556 31.1901C29.1632 31.2258 29.2844 31.2496 29.392 31.2496C29.7823 31.2496 30.1591 31.0352 30.3071 30.6897L36.1072 16.965C36.3091 16.5004 36.0399 16 35.542 15.8332Z" fill="#14074B"/>
<path d="M24.7897 18.216C24.4398 17.8467 23.8207 17.799 23.417 18.1088L16.9978 22.8384C16.7691 23.0052 16.6479 23.2435 16.6479 23.5056C16.6479 23.7677 16.7825 24.006 16.9978 24.1728L23.417 28.9024C23.6054 29.0335 23.8207 29.105 24.0361 29.105C24.3187 29.105 24.6013 28.9978 24.7897 28.7952C25.1396 28.4259 25.0723 27.8779 24.6686 27.58L19.151 23.5175L24.6686 19.455C25.0857 19.1333 25.1396 18.5853 24.7897 18.216Z" fill="#14074B"/>
<path d="M41.1792 18.1088C40.762 17.799 40.143 17.8586 39.8065 18.216C39.4566 18.5853 39.5239 19.1334 39.9276 19.4312L45.4452 23.4937L39.9276 27.5562C39.5104 27.866 39.4566 28.4021 39.8065 28.7714C39.9949 28.974 40.2775 29.0812 40.5601 29.0812C40.7755 29.0812 41.0042 29.0097 41.1792 28.8786L47.5985 24.149C47.8272 23.9822 47.9484 23.7439 47.9484 23.4818C47.9484 23.2316 47.8138 22.9814 47.5985 22.8146L41.1792 18.1088Z" fill="#14074B"/>
</svg>
