<svg width="68" height="51" viewBox="0 0 68 51" fill="none" xmlns="http://www.w3.org/2000/svg">
<path d="M67.7025 32.5863L62.8575 27.8399C64.2458 27.0905 65.3933 26.3133 66.0308 25.7027C68.17 23.607 68.17 20.1791 66.0308 18.0835C64.9967 17.0704 63.6083 16.5013 62.135 16.5013C60.6617 16.5013 59.2875 17.0565 58.2392 18.0835C57.6158 18.6941 56.8225 19.8321 56.0575 21.1922L51.2125 16.4458L34.7225 0.291445C34.3258 -0.0971483 33.6742 -0.0971483 33.2633 0.291445L28.4183 5.03784C27.6533 3.69164 26.86 2.55361 26.2367 1.92909C25.2025 0.91597 23.8142 0.346958 22.3408 0.346958C20.8675 0.346958 19.4933 0.902092 18.445 1.92909C17.425 2.95608 16.8583 4.31616 16.8583 5.74563C16.8583 7.1751 17.425 8.53518 18.4733 9.56217C19.0967 10.1728 20.2583 10.95 21.6325 11.6994L16.7875 16.4458L10.9508 22.1637C10.71 22.3996 10.6108 22.7188 10.6675 23.038C10.7242 23.3572 10.9367 23.6348 11.2342 23.7736C12.92 24.5785 14.4783 25.5361 15.1158 26.1745C16.4617 27.493 16.4617 29.6302 15.1158 30.9348C13.77 32.2533 11.5883 32.2533 10.2567 30.9348C9.61917 30.3103 8.6275 28.7698 7.80583 27.1321C7.66417 26.8407 7.38083 26.6325 7.055 26.577C6.72917 26.5215 6.38917 26.6325 6.1625 26.8546L0.325833 32.5724C0.113333 32.7806 0 33.0443 0 33.308C0 33.5717 0.113333 33.8354 0.2975 34.0158L5.1425 38.7622C3.75417 39.5116 2.60667 40.2749 1.96917 40.8994C0.935 41.9126 0.354167 43.2726 0.354167 44.716C0.354167 46.1593 0.920833 47.5055 1.96917 48.5325C3.00333 49.5457 4.39167 50.1147 5.865 50.1147C7.33833 50.1147 8.7125 49.5595 9.76083 48.5325C10.3842 47.9219 11.1775 46.7839 11.9425 45.4377L16.7875 50.1841C16.9858 50.3783 17.255 50.4755 17.51 50.4755C17.7792 50.4755 18.0342 50.3783 18.2325 50.1841L34 34.7375L38.1225 38.7761C36.7483 39.5255 35.5867 40.3027 34.9492 40.9133C33.915 41.9264 33.3342 43.2865 33.3342 44.7299C33.3342 46.1732 33.9008 47.5194 34.9492 48.5464C35.9833 49.5595 37.3717 50.1285 38.845 50.1285C40.3183 50.1285 41.6925 49.5734 42.7408 48.5464C43.3642 47.9358 44.1575 46.7977 44.9225 45.4515L49.7675 50.1979C49.9658 50.3922 50.235 50.4894 50.5042 50.4894C50.7733 50.4894 51.0283 50.3922 51.2267 50.1979L67.7167 34.0436C67.8867 33.8354 68 33.5717 68 33.308C68 33.0443 67.8867 32.7806 67.7025 32.5863ZM24.0833 12.1435C24.3242 11.9076 24.4233 11.5884 24.3667 11.2692C24.31 10.95 24.0975 10.6724 23.8 10.5198C22.1142 9.71483 20.5558 8.75723 19.9183 8.11882C19.2667 7.48042 18.9125 6.63384 18.9125 5.73175C18.9125 4.82966 19.2667 3.98308 19.9183 3.34468C21.2217 2.06787 23.4883 2.06787 24.7775 3.34468C25.415 3.9692 26.4067 5.5097 27.2283 7.14734C27.37 7.43879 27.6533 7.64696 27.9792 7.70248C28.305 7.75799 28.645 7.64696 28.8717 7.42491L34 2.44259L49.0308 17.1675L44.1433 21.9555L43.9167 22.1637C43.6758 22.3996 43.5767 22.7188 43.6333 23.038C43.69 23.3572 43.9025 23.6348 44.2 23.7736C45.8858 24.5785 47.4442 25.5361 48.0817 26.1745C49.4275 27.493 49.4275 29.6302 48.0817 30.9348C46.7783 32.2116 44.5117 32.1977 43.2225 30.9348C42.585 30.3103 41.5933 28.7698 40.7717 27.1321C40.63 26.8407 40.3467 26.6325 40.0208 26.577C39.9642 26.5631 39.9075 26.5631 39.8508 26.5631C39.5817 26.5631 39.3125 26.6742 39.1283 26.8546L38.6608 27.3126L34 31.8785L29.8775 27.8399C31.2658 27.0905 32.4133 26.3133 33.0508 25.7027C35.19 23.607 35.19 20.1791 33.0508 18.0835C30.8975 15.9878 27.4125 15.9878 25.2733 18.0835C24.65 18.6941 23.8567 19.8321 23.0917 21.1922L18.9692 17.1536L24.0833 12.1435ZM17.51 48.0329L12.3958 43.0228C12.155 42.7869 11.815 42.6898 11.5033 42.7453C11.1775 42.8008 10.8942 43.009 10.7525 43.3004C9.93083 44.9519 8.95333 46.4785 8.30167 47.1031C6.99833 48.3799 4.73167 48.3799 3.4425 47.1031C2.79083 46.4647 2.43667 45.6181 2.43667 44.716C2.43667 43.8139 2.79083 42.9673 3.4425 42.3289C4.08 41.7044 5.6525 40.7329 7.32417 39.928C7.62167 39.7892 7.83417 39.5116 7.89083 39.1924C7.9475 38.8732 7.83417 38.5401 7.6075 38.3181L2.49333 33.308L6.61583 29.2694C7.38083 30.6156 8.17417 31.7536 8.7975 32.3782C10.9508 34.4738 14.4358 34.4738 16.575 32.3782C18.7142 30.2825 18.7142 26.8546 16.575 24.7589C15.9517 24.1483 14.79 23.3711 13.4017 22.6217L17.5242 18.5831L22.0433 23.0103L22.6242 23.5932C22.865 23.8291 23.1908 23.9262 23.5167 23.8707C23.8425 23.8152 24.1258 23.607 24.2675 23.3156C25.0892 21.6641 26.0667 20.1375 26.7183 19.5129C28.0642 18.1945 30.2458 18.1945 31.5775 19.5129C32.9233 20.8314 32.9233 22.9686 31.5775 24.2732C30.94 24.8977 29.3817 25.8692 27.6958 26.6742C27.3983 26.8129 27.1858 27.0905 27.1292 27.4097C27.0725 27.7289 27.1858 28.062 27.4125 28.284L32.5408 33.308L17.51 48.0329ZM50.49 48.0329L45.3758 43.0228C45.135 42.7869 44.8092 42.6898 44.4833 42.7453C44.1575 42.8008 43.8742 43.009 43.7325 43.3004C42.9108 44.9519 41.9333 46.4785 41.2817 47.1031C39.9783 48.3799 37.7117 48.3799 36.4225 47.1031C35.7708 46.4647 35.4167 45.6181 35.4167 44.716C35.4167 43.8139 35.7708 42.9673 36.4225 42.3289C37.06 41.7044 38.6325 40.7329 40.3042 39.928C40.6017 39.7892 40.8142 39.5116 40.8708 39.1924C40.9275 38.8732 40.8142 38.5401 40.5875 38.3181L35.4592 33.308L39.5817 29.2694C40.3467 30.6156 41.14 31.7536 41.7633 32.3782C42.7975 33.3913 44.1858 33.9603 45.6592 33.9603C47.1325 33.9603 48.5067 33.4051 49.555 32.3782C51.6942 30.2825 51.6942 26.8546 49.555 24.7589C48.9317 24.1483 47.77 23.3711 46.3817 22.6217L50.5042 18.5831L55.6042 23.5932C55.845 23.8291 56.1708 23.9262 56.4967 23.8707C56.8225 23.8152 57.1058 23.607 57.2475 23.3156C58.0692 21.6641 59.0467 20.1375 59.6983 19.5129C61.0017 18.2361 63.2683 18.2361 64.5575 19.5129C65.9033 20.8314 65.9033 22.9686 64.5575 24.2732C63.92 24.8977 62.3475 25.8692 60.6758 26.6742C60.3783 26.8129 60.1658 27.0905 60.1092 27.4097C60.0525 27.7289 60.1658 28.062 60.3925 28.284L65.5067 33.308L50.49 48.0329Z" fill="#14074B"/>
</svg>
