<svg width="112" height="182" viewBox="0 0 112 182" fill="none" xmlns="http://www.w3.org/2000/svg">
<rect x="14.2456" width="84" height="33" fill="#09001A"/>
<rect x="0.245605" y="14" width="17" height="69" fill="#09001A"/>
<rect x="96.2456" y="15" width="15" height="68" fill="#09001A"/>
<rect x="97.4565" y="14.8496" width="1.06069" height="12.7282" fill="#09001A"/>
<rect x="13.6626" y="67.8839" width="83.7942" height="3.18206" fill="#160700"/>
<rect x="71.2456" y="14" width="12" height="17" fill="#481E1F"/>
<rect x="14.2456" y="28" width="84" height="84" fill="#481E1F"/>
<rect x="0.93457" y="56.2164" width="110.311" height="12.7282" fill="#481E1F"/>
<rect x="23.2456" y="37" width="70" height="22" fill="#481E1F"/>
<rect x="84.729" y="41.3668" width="13.7889" height="14.8496" fill="#481E1F"/>
<rect x="69.8789" y="41.3668" width="14.8496" height="14.8496" fill="#120B0B"/>
<rect x="27.4512" y="41.3668" width="14.8496" height="14.8496" fill="#120B0B"/>
<rect x="55.0293" y="84.8549" width="28.6385" height="13.7889" fill="white"/>
<rect x="42.2456" y="109" width="26" height="19" fill="#481E1F"/>
<rect x="13.6626" y="68.9446" width="83.7942" height="15.9103" fill="#481E1F"/>
<rect x="29.2456" y="99" width="69" height="13" fill="#481E1F"/>
<rect x="13.6626" y="84.8549" width="41.3668" height="27.5779" fill="#481E1F"/>
<rect x="83.668" y="84.8549" width="13.7889" height="13.7889" fill="#481E1F"/>
<rect x="0.245605" y="142" width="110" height="40" fill="#481E1F"/>
<rect x="11.2456" y="127" width="87" height="55" fill="#003466"/>
<rect x="0.000488281" y="127" width="110" height="16" fill="#003466"/>
</svg>
